<?xml version="1.0" standalone="no"?>
<!DOCTYPE svg PUBLIC "-//W3C//DTD SVG 20010904//EN"
 "http://www.w3.org/TR/2001/REC-SVG-20010904/DTD/svg10.dtd">
<svg version="1.0" xmlns="http://www.w3.org/2000/svg"
 width="2212.000000pt" height="2212.000000pt" viewBox="0 0 2212.000000 2212.000000"
 preserveAspectRatio="xMidYMid meet">
<g transform="translate(0.000000,2212.000000) scale(0.100000,-0.100000)"
fill="#000000" stroke="none">
<path d="M7588 13686 c-1 -2 -35 -6 -73 -10 -74 -7 -119 -13 -147 -22 -9 -3
-27 -7 -40 -10 -39 -9 -53 -12 -53 -14 0 -1 -7 -3 -15 -5 -8 -1 -96 -30 -196
-63 -99 -33 -205 -65 -235 -71 -30 -6 -65 -13 -79 -16 -14 -3 -39 -7 -57 -10
-30 -4 -116 -19 -173 -30 -71 -14 -97 -19 -115 -21 -11 -1 -20 -3 -20 -4 0 -1
-10 -3 -23 -6 -47 -8 -339 -74 -392 -88 -30 -8 -58 -12 -62 -10 -5 3 -8 1 -8
-4 0 -5 -6 -9 -12 -10 -19 -1 -56 -10 -133 -31 -38 -11 -73 -17 -77 -15 -4 3
-8 0 -8 -5 0 -6 -3 -10 -7 -9 -5 1 -20 -2 -34 -6 -14 -4 -34 -9 -45 -11 -10
-2 -19 -4 -19 -5 0 -1 -9 -3 -19 -5 -10 -2 -42 -11 -70 -20 -28 -10 -58 -19
-66 -20 -8 -2 -15 -4 -15 -5 0 -1 -7 -3 -15 -5 -8 -2 -53 -15 -100 -29 -47
-15 -92 -28 -102 -30 -30 -8 -323 -98 -343 -106 -23 -9 -415 -140 -430 -143
-5 -2 -14 -5 -20 -8 -5 -4 -35 -14 -65 -24 -30 -10 -59 -21 -65 -25 -5 -4 -28
-13 -50 -20 -22 -7 -55 -19 -72 -27 -18 -7 -35 -13 -38 -13 -3 0 -20 -8 -38
-17 -17 -10 -36 -18 -42 -18 -5 -1 -25 -9 -42 -18 -18 -10 -33 -15 -33 -11 0
4 -6 2 -12 -3 -7 -6 -67 -34 -133 -63 -156 -68 -549 -261 -553 -272 -2 -4 -9
-8 -17 -8 -7 0 -39 -16 -71 -35 -32 -19 -63 -35 -70 -35 -7 0 -14 -4 -16 -8
-1 -5 -46 -32 -98 -62 -52 -30 -125 -73 -163 -97 -37 -24 -70 -43 -73 -43 -2
0 -10 -4 -17 -10 -7 -5 -88 -60 -182 -123 -191 -127 -408 -284 -413 -298 -2
-5 -8 -9 -13 -9 -8 0 -29 -16 -85 -65 -12 -11 -35 -29 -50 -40 -15 -11 -42
-31 -60 -45 -17 -14 -43 -33 -56 -42 -12 -9 -52 -38 -88 -65 -36 -27 -132 -97
-215 -157 -82 -60 -162 -120 -176 -135 -24 -24 -47 -80 -44 -106 4 -31 20 -74
38 -100 22 -33 67 -79 67 -69 0 3 6 2 13 -3 21 -16 74 -15 108 3 34 17 126 79
145 98 6 6 28 25 49 41 21 17 77 61 124 98 121 96 128 101 211 165 41 32 102
78 135 102 33 24 62 47 63 52 2 4 8 8 12 8 8 0 117 77 160 113 28 23 81 57 90
57 4 0 10 4 12 9 4 11 350 238 473 311 300 177 650 360 875 457 58 25 119 51
135 59 17 7 86 35 155 62 69 27 134 53 145 57 11 5 22 9 25 10 3 0 37 12 75
25 39 14 74 25 79 25 5 0 10 -202 12 -465 2 -446 8 -667 20 -850 3 -47 7 -107
9 -135 4 -61 13 -171 21 -245 3 -30 7 -73 9 -95 2 -22 5 -40 5 -40 1 0 3 -11
4 -25 2 -14 6 -50 10 -80 5 -30 10 -68 12 -85 2 -16 7 -46 10 -65 4 -19 8 -46
10 -60 1 -14 5 -36 9 -50 3 -14 8 -41 11 -60 3 -19 7 -42 9 -50 2 -8 7 -31 10
-50 8 -50 106 -441 118 -470 3 -8 16 -49 28 -90 27 -91 24 -79 34 -115 4 -16
11 -34 16 -40 4 -5 7 -12 7 -15 -2 -10 65 -202 92 -265 5 -11 29 -72 54 -136
113 -289 139 -343 170 -357 28 -13 107 -7 139 9 12 7 23 12 24 11 12 -7 66 40
78 68 32 71 20 162 -43 330 -3 8 -6 17 -7 20 -1 3 -7 19 -14 35 -7 17 -14 35
-15 40 -2 6 -8 24 -15 40 -6 17 -21 55 -32 85 -12 30 -27 71 -34 90 -16 40
-82 232 -83 240 0 3 -3 12 -6 20 -11 28 -108 375 -111 395 -2 11 -6 29 -9 40
-10 42 -56 264 -61 301 -4 21 -9 48 -12 59 -4 11 -7 34 -9 51 -1 17 -4 40 -8
50 -3 10 -8 39 -11 64 -3 25 -7 54 -9 65 -2 11 -7 49 -11 85 -4 36 -9 72 -10
80 -2 8 -6 44 -10 80 -3 36 -8 81 -11 100 -2 19 -6 76 -10 125 -3 50 -7 106
-9 125 -8 76 -18 322 -19 447 -1 73 -3 133 -6 133 -3 0 -5 130 -5 290 0 159 2
290 5 290 3 0 5 41 4 91 l0 90 35 19 c55 27 161 69 161 63 0 -3 6 -1 13 4 28
23 463 153 587 177 14 2 32 7 40 10 8 3 26 7 40 10 14 2 45 9 70 16 25 7 54
14 65 15 11 2 29 6 40 8 21 5 165 36 200 43 11 2 62 12 114 23 52 11 98 18
103 15 4 -3 8 0 8 6 0 6 3 9 8 7 4 -3 36 1 72 9 36 8 76 16 90 19 14 3 36 7
50 10 65 13 137 27 160 30 98 15 295 65 397 101 120 42 364 107 453 119 134
19 161 28 197 67 19 20 30 71 23 103 -1 6 -2 13 -1 18 2 13 -29 81 -47 100
-24 27 -64 46 -109 52 -21 3 -43 8 -50 10 -6 2 -13 2 -15 1z"/>
<path d="M20681 12544 c-18 -8 -35 -23 -38 -34 -3 -11 -9 -20 -13 -20 -5 0
-16 -18 -26 -40 -10 -22 -21 -40 -25 -40 -4 0 -9 -10 -13 -22 -3 -13 -19 -37
-36 -55 -16 -18 -30 -35 -30 -39 0 -3 -12 -21 -27 -39 -16 -18 -41 -49 -58
-70 -16 -21 -35 -43 -40 -49 -6 -6 -26 -31 -45 -56 -50 -64 -72 -91 -97 -117
-13 -13 -23 -28 -23 -33 0 -5 -6 -13 -12 -17 -7 -4 -35 -35 -63 -68 -27 -33
-57 -69 -67 -80 -9 -11 -34 -40 -55 -64 -21 -24 -60 -69 -88 -99 -27 -31 -59
-66 -70 -78 -11 -12 -49 -55 -85 -95 -82 -94 -463 -474 -560 -559 -41 -36 -84
-74 -96 -85 -12 -11 -45 -40 -73 -65 -29 -25 -69 -61 -90 -80 -33 -30 -62 -55
-165 -143 -11 -10 -43 -38 -71 -61 -27 -24 -72 -63 -100 -86 -27 -23 -63 -54
-80 -68 -46 -41 -189 -158 -300 -247 -55 -44 -102 -82 -105 -85 -9 -11 -243
-190 -355 -273 -33 -24 -87 -64 -120 -88 -72 -53 -83 -61 -176 -124 -41 -27
-79 -54 -85 -60 -6 -5 -27 -19 -47 -30 -20 -11 -37 -23 -37 -27 0 -5 -5 -8
-12 -8 -6 0 -26 -11 -45 -26 -18 -14 -33 -21 -33 -17 0 4 -4 3 -8 -2 -14 -20
-178 -112 -282 -158 -84 -37 -110 -45 -178 -61 -78 -18 -283 -15 -327 4 -51
23 -195 112 -195 121 0 5 -6 9 -14 9 -7 0 -33 26 -57 58 -24 31 -47 59 -51 60
-5 2 -8 8 -8 13 0 4 -11 32 -24 61 -13 29 -27 67 -31 83 -5 17 -9 35 -11 40
-16 55 -22 145 -19 270 3 140 7 182 20 245 3 14 7 45 10 70 3 25 8 52 10 60 2
8 7 31 10 50 3 19 8 42 10 50 2 8 7 35 10 60 3 25 8 52 10 60 4 14 9 47 22
135 2 17 6 84 8 151 5 140 -10 210 -71 323 -143 265 -358 261 -642 -11 -31
-30 -75 -76 -97 -102 -22 -26 -50 -58 -62 -71 -12 -14 -34 -42 -50 -62 -15
-21 -31 -40 -34 -43 -9 -7 -120 -169 -206 -300 -42 -63 -86 -131 -99 -151 -13
-19 -24 -40 -24 -47 0 -7 -4 -12 -9 -12 -5 0 -14 -13 -21 -30 -26 -64 -37 -55
-39 33 -2 78 -4 98 -16 187 -10 72 -19 123 -29 165 -2 6 -6 24 -10 40 -4 17
-14 47 -22 68 -8 20 -14 38 -13 40 1 4 -14 43 -42 105 -43 96 -140 209 -198
231 -14 5 -35 12 -46 17 -27 10 -99 7 -160 -7 -53 -12 -178 -67 -183 -81 -2
-4 -9 -8 -16 -8 -7 0 -21 -8 -32 -18 -11 -10 -33 -27 -48 -38 -51 -32 -174
-149 -261 -245 -95 -105 -259 -331 -354 -488 l-51 -84 -1 49 c-1 144 -11 249
-30 335 -6 26 -12 53 -13 60 -2 8 -9 28 -15 44 -7 17 -14 35 -15 40 -6 25 -66
136 -104 192 -130 192 -295 285 -507 287 -135 1 -152 -3 -293 -79 -33 -17
-191 -168 -246 -235 -104 -125 -406 -580 -406 -610 0 -5 -4 -10 -8 -12 -8 -3
-62 -91 -75 -122 -12 -31 -16 -16 -22 89 -10 177 -18 234 -47 345 -10 41 -20
80 -21 85 -2 6 -5 15 -8 20 -4 6 -12 28 -19 50 -20 63 -61 146 -99 200 -38 55
-161 185 -174 185 -5 0 -22 9 -38 21 -25 17 -70 38 -164 74 -11 4 -36 10 -55
13 -47 8 -289 7 -320 -2 -14 -3 -36 -8 -50 -11 -50 -9 -157 -43 -188 -59 -17
-9 -38 -16 -47 -16 -8 0 -15 -4 -15 -8 0 -4 -27 -21 -60 -37 -33 -17 -60 -33
-60 -37 0 -5 -5 -8 -10 -8 -12 0 -123 -80 -128 -92 -2 -4 -8 -8 -13 -8 -11 0
-109 -91 -196 -181 -127 -132 -245 -301 -335 -482 -16 -33 -31 -57 -33 -55 -2
1 -6 23 -10 48 -3 25 -8 59 -11 75 -3 17 -7 44 -9 60 -3 30 -5 42 -26 180 -27
173 -55 242 -110 271 -77 39 -213 14 -244 -46 -15 -29 -9 -190 10 -290 2 -10
7 -50 10 -87 4 -37 9 -72 12 -76 2 -4 6 -29 8 -55 3 -26 7 -58 10 -72 7 -32 9
-47 35 -210 24 -151 28 -176 36 -222 3 -18 7 -46 9 -63 4 -30 14 -94 21 -130
2 -10 7 -37 10 -60 9 -57 13 -83 23 -145 5 -30 12 -73 15 -95 9 -61 15 -98 21
-125 2 -14 7 -41 9 -60 3 -19 8 -50 11 -67 10 -61 15 -98 20 -148 17 -143 27
-171 78 -217 32 -30 33 -30 112 -32 77 -2 159 48 173 104 9 34 -1 210 -12 229
-2 3 -7 37 -11 74 -3 37 -9 78 -12 90 -11 46 -9 316 3 407 17 128 23 159 69
320 30 106 150 357 216 452 139 200 272 335 427 434 29 19 54 34 56 34 2 0 21
7 42 16 22 9 39 15 40 13 0 -2 7 1 15 8 24 20 137 41 220 41 177 1 299 -70
377 -217 28 -51 73 -173 71 -189 -1 -4 0 -9 1 -12 20 -50 31 -332 17 -455 -12
-111 -24 -200 -27 -200 -1 0 -4 -11 -5 -25 -6 -38 -21 -119 -40 -207 -3 -13
-7 -34 -9 -48 -3 -14 -7 -33 -10 -43 -2 -9 -7 -39 -11 -66 -3 -27 -8 -53 -11
-57 -2 -4 -6 -43 -8 -87 -7 -138 43 -196 176 -205 70 -5 104 14 146 81 43 68
188 322 255 447 12 22 24 42 27 45 3 3 10 14 16 25 62 115 276 483 346 595 32
52 64 104 71 115 19 32 140 210 146 215 4 3 19 23 36 45 51 68 142 151 190
174 55 26 126 26 197 0 52 -19 106 -54 126 -81 7 -9 19 -24 27 -32 8 -8 15
-18 15 -22 0 -4 6 -15 14 -23 13 -16 54 -116 62 -156 46 -210 51 -413 14 -595
-6 -30 -13 -71 -16 -90 -3 -19 -9 -48 -14 -65 -4 -16 -11 -46 -14 -65 -7 -39
-6 -36 -35 -176 -29 -138 -31 -144 -37 -184 -3 -19 -7 -37 -9 -40 -2 -3 -6
-26 -10 -50 -3 -25 -8 -52 -10 -60 -10 -34 -18 -109 -19 -175 0 -59 4 -77 23
-104 29 -40 71 -59 145 -66 83 -8 124 18 176 115 53 98 123 233 207 400 48 96
93 178 98 182 6 4 6 8 2 8 -9 0 22 61 36 71 5 3 8 9 7 13 -2 9 95 198 194 381
6 11 38 64 71 118 33 54 65 105 70 115 12 21 154 232 166 246 5 6 26 34 47 61
97 126 189 210 243 220 40 8 91 -60 103 -136 3 -20 8 -42 10 -50 3 -8 7 -30
10 -49 3 -19 8 -46 10 -60 21 -120 21 -374 1 -480 -3 -14 -8 -45 -11 -70 -3
-25 -9 -63 -14 -85 -5 -22 -11 -53 -14 -70 -3 -16 -14 -74 -26 -128 -11 -54
-19 -101 -19 -105 1 -4 0 -9 -1 -12 -6 -17 -15 -84 -24 -188 -2 -18 6 -50 17
-73 25 -50 78 -79 155 -84 84 -4 129 24 172 109 11 23 34 64 51 91 16 28 34
59 40 70 5 11 15 29 22 40 7 11 30 52 51 90 22 39 43 72 48 73 4 2 8 8 8 14 0
5 26 55 58 110 31 55 74 132 96 171 21 40 41 74 45 77 3 3 13 19 21 35 8 17
36 65 63 108 26 43 47 81 47 83 0 3 11 20 25 38 14 18 25 36 25 40 0 10 133
210 142 214 4 2 8 8 8 13 0 4 28 46 62 91 166 222 288 310 319 231 13 -32 3
-249 -15 -343 -2 -14 -7 -43 -10 -65 -3 -22 -8 -51 -10 -65 -3 -14 -7 -41 -10
-60 -2 -19 -7 -42 -9 -50 -3 -8 -8 -37 -12 -65 -8 -65 -13 -102 -20 -145 -27
-165 -27 -433 -1 -545 2 -11 9 -40 15 -65 15 -67 77 -211 110 -256 9 -12 23
-32 31 -45 25 -39 180 -189 195 -189 8 0 15 -4 15 -9 0 -11 166 -94 230 -114
36 -12 124 -26 185 -29 24 -1 222 13 235 17 8 2 35 7 60 10 39 5 59 10 125 29
6 2 13 4 18 4 52 6 515 297 840 529 87 62 160 113 163 113 2 0 12 6 21 14 10
8 110 86 223 172 113 87 207 160 210 164 3 3 28 24 55 45 28 22 52 42 55 45 3
3 46 39 95 79 50 41 108 91 131 110 22 20 57 50 78 66 20 17 50 41 64 55 15
14 51 44 79 68 28 24 67 57 86 75 19 18 77 70 128 117 222 200 1224 1214 1352
1367 19 23 41 48 48 56 8 7 30 33 49 57 19 24 40 48 45 54 6 6 24 29 40 51 17
22 35 45 41 52 6 6 38 51 70 100 32 48 62 90 65 93 15 12 51 108 51 137 0 63
-49 115 -139 147 -33 12 -44 12 -72 0z"/>
<path d="M7116 10923 c-1 -2 -27 -5 -57 -8 -30 -3 -65 -7 -79 -9 -113 -20
-125 -23 -147 -34 -10 -6 -20 -10 -23 -10 -11 2 -59 -16 -118 -43 -35 -16 -65
-29 -67 -29 -3 0 -33 -19 -67 -42 -75 -51 -220 -192 -276 -268 -35 -48 -133
-206 -131 -213 0 -2 -8 -26 -32 -89 -19 -48 -54 -179 -63 -233 -18 -106 -23
-321 -11 -435 38 -364 200 -649 444 -780 25 -14 49 -29 52 -33 3 -5 9 -8 13
-7 3 1 32 -8 64 -20 64 -25 68 -26 172 -45 73 -13 334 -14 390 -1 14 3 46 10
71 16 26 6 53 13 60 14 8 2 21 5 29 8 8 3 44 16 80 29 225 80 473 289 571 482
11 20 23 37 27 37 4 -1 25 -26 47 -56 133 -187 366 -322 581 -339 132 -11 188
35 197 165 8 102 -48 157 -216 210 -154 49 -264 120 -293 189 -17 40 -43 114
-50 140 -2 9 -20 75 -39 146 -20 72 -37 137 -38 145 -4 27 -47 113 -74 148
-53 70 -168 92 -232 45 -32 -24 -58 -75 -66 -128 -3 -22 -10 -63 -16 -91 -5
-28 -12 -64 -15 -80 -12 -68 -70 -252 -86 -271 -6 -7 -8 -13 -5 -13 9 0 -53
-118 -90 -170 -161 -230 -500 -348 -817 -285 -58 12 -159 69 -212 120 -30 29
-54 56 -54 61 0 4 -6 15 -14 23 -44 50 -110 223 -121 320 -4 30 -9 63 -11 75
-6 29 -5 234 1 274 20 131 30 169 73 267 51 115 138 227 243 310 80 63 226
124 335 140 21 4 47 8 56 11 24 7 235 7 246 0 6 -3 29 -8 52 -11 24 -3 47 -8
51 -11 5 -3 17 -7 26 -9 56 -13 167 -59 306 -128 235 -116 252 -122 302 -102
25 9 85 75 85 92 0 7 4 13 10 13 17 0 38 92 28 122 -11 30 -75 93 -114 110
-13 6 -24 15 -24 20 0 4 -7 8 -15 8 -9 0 -18 7 -21 15 -4 8 -14 15 -24 15 -11
0 -22 5 -26 11 -9 15 -181 94 -269 124 -41 14 -141 42 -185 51 -42 9 -144 24
-195 28 -17 1 -35 5 -42 9 -6 4 -14 3 -18 -3 -4 -6 -11 -7 -17 -4 -9 6 -137
12 -142 7z"/>
</g>
</svg>
