<?xml version="1.0" encoding="UTF-8" standalone="no"?>
<!-- Created with Inkscape (http://www.inkscape.org/) -->

<svg
   version="1.1"
   id="svg2"
   xml:space="preserve"
   width="553.33331"
   height="189.33333"
   viewBox="0 0 553.33331 189.33333"
   sodipodi:docname="tamm signature logo signatur logga tiger stripes.ai"
   xmlns:inkscape="http://www.inkscape.org/namespaces/inkscape"
   xmlns:sodipodi="http://sodipodi.sourceforge.net/DTD/sodipodi-0.dtd"
   xmlns="http://www.w3.org/2000/svg"
   xmlns:svg="http://www.w3.org/2000/svg"><defs
     id="defs6"><clipPath
       clipPathUnits="userSpaceOnUse"
       id="clipPath16"><path
         d="M 0,142 H 415 V 0 H 0 Z"
         id="path14" /></clipPath><clipPath
       clipPathUnits="userSpaceOnUse"
       id="clipPath44"><path
         d="m 131.276,117.579 c -5.591,-2.083 -11.411,-0.925 -42.407,-10.868 v 0 C 57.873,96.766 41.09,82.402 35.356,77.954 v 0 c -3.906,-2.87 -6.865,-5.015 -8.872,-6.438 v 0 c -1.543,-1.151 -1.832,-2.557 -0.879,-4.215 v 0 c 1.066,-1.854 2.432,-2.307 4.087,-1.352 v 0 c 4.109,2.369 24.496,22.354 55.382,32.758 v 0 C 84.775,69.872 86.204,54.11 93.872,34.609 v 0 c 2.019,-5.125 3.139,-7.763 3.365,-7.923 v 0 c 0.706,-0.544 1.88,-0.493 3.512,0.153 v 0 c 1.566,0.612 2.085,2.129 1.54,4.55 v 0 c -0.082,0.63 -0.699,2.405 -1.846,5.327 v 0 c -7.35,18.678 -9.541,36.087 -8.821,63.909 v 0 c 12.13,5.83 36.525,8.811 40.753,10.385 v 0 c 3.873,1.441 7.586,2.421 11.145,2.947 v 0 c 0.774,0.11 1.272,0.204 1.485,0.285 v 0 c 1.579,0.585 1.967,1.957 1.167,4.104 v 0 c -0.477,1.282 -1.776,1.922 -3.899,1.922 v 0 c -2.512,0 -6.178,-0.897 -10.997,-2.689 M 385.768,95.775 c -0.142,-0.246 -6.546,-8.848 -16.522,-19.582 v 0 C 363.844,70.378 357.221,64.596 349.46,57.938 v 0 C 339.008,48.971 323.354,36.872 315.907,34.278 v 0 c -4.062,-1.417 -7.765,-0.346 -7.855,-0.303 v 0 c -1.984,1.017 -3.445,1.97 -4.386,2.852 v 0 c -2.22,2.296 -3.328,5.583 -3.328,9.868 v 0 c 0,2.142 0.383,5.181 1.147,9.12 v 0 c 0.763,3.941 1.147,6.865 1.147,8.779 v 0 c 0,1.987 -0.535,3.9 -1.605,5.737 v 0 c -1.302,2.218 -2.91,3.325 -4.82,3.325 v 0 c -4.587,0 -10.939,-6.808 -19.044,-20.422 v 0 c 0,5.659 -0.996,10.364 -2.983,14.113 v 0 c -0.255,0.45 -0.493,0.771 -0.715,0.976 v 0 c -1.243,1.882 -2.743,2.821 -4.507,2.821 v 0 c -4.587,0 -11.533,-4.716 -19.639,-18.329 v 0 c 0,5.659 -0.401,8.271 -2.389,12.02 v 0 c -2.6,4.59 -5.812,6.991 -11.016,6.991 v 0 c -6.161,0 -10.934,-6.805 -19.044,-20.422 v 0 c 0,5.661 -0.996,10.366 -2.983,14.112 v 0 c -2.601,4.589 -6.501,6.885 -11.701,6.885 v 0 c -5.127,0 -10.059,-2.064 -14.802,-6.195 v 0 c -4.131,-3.596 -7.342,-7.955 -9.636,-13.079 v 0 c -0.843,5.811 -1.339,9.062 -1.492,9.75 v 0 c -0.459,1.913 -1.454,2.87 -2.984,2.87 v 0 c -2.294,0 -3.44,-0.726 -3.44,-2.174 v 0 c 0,-1.145 0.343,-4.121 1.032,-8.925 v 0 c 1.682,-10.374 2.945,-18.155 3.785,-23.341 v 0 c 0.229,-1.526 0.422,-3.015 0.575,-4.461 v 0 c 0.459,-1.833 1.414,-2.748 2.867,-2.748 v 0 c 2.525,0 3.787,0.995 3.787,2.985 v 0 c 0,0.84 -0.172,2.332 -0.518,4.473 v 0 c -0.345,2.142 -0.514,3.825 -0.514,5.049 v 0 c 0,4.665 0.802,8.91 2.407,12.734 v 0 c 1.76,4.283 4.093,7.916 7,10.899 v 0 c 3.672,3.749 7.457,5.623 11.357,5.623 v 0 c 5.89,0 8.835,-4.567 8.835,-13.7 v 0 c 0,-2.303 -0.421,-5.466 -1.262,-9.499 v 0 c -0.84,-4.026 -1.261,-6.656 -1.261,-7.882 v 0 c 0,-1.997 1.301,-2.994 3.899,-2.994 v 0 c 0.841,0 1.57,0.496 2.182,1.492 v 0 c 3.29,5.737 6.54,11.435 9.753,17.094 v 0 c 5.506,9.255 8.903,14.252 11.809,14.508 v 0 c 0.048,0.004 0.136,0.021 0.257,0.051 v 0 c 5.365,-0.071 7.668,-4.891 7.668,-13.449 v 0 c 0,-2.302 -1.553,-9.32 -2.394,-13.354 v 0 c -0.84,-4.029 -1.258,-6.654 -1.258,-7.884 v 0 c 0,-1.995 1.298,-2.991 3.897,-2.991 v 0 c 0.841,0 1.57,0.498 2.182,1.492 v 0 c 3.29,5.737 7.666,15.284 10.878,20.946 v 0 c 5.511,9.254 9.258,13.882 11.245,13.882 v 0 c 0.534,0 1.233,-1.105 1.535,-2.194 v 0 c 0.274,-0.976 1.479,-6.1 0.815,-11.73 v 0 c -0.079,-0.572 -0.171,-1.172 -0.277,-1.799 v 0 c -0.011,-0.058 -0.022,-0.116 -0.034,-0.173 v 0 c -0.037,-0.187 -0.065,-0.355 -0.083,-0.505 v 0 c -0.151,-0.846 -0.324,-1.739 -0.521,-2.679 v 0 c -0.84,-4.029 -1.263,-6.657 -1.263,-7.886 v 0 c 0,-1.994 1.303,-2.992 3.902,-2.992 v 0 c 0.841,0 1.57,0.498 2.178,1.491 v 0 c 3.289,5.737 6.54,11.435 9.752,17.096 v 0 c 5.51,9.255 9.258,13.881 11.245,13.881 v 0 c 0.536,0 0.802,-0.534 0.802,-1.606 v 0 c 0,-1.987 -0.379,-5.163 -1.147,-9.522 v 0 c -0.764,-4.36 -1.147,-7.649 -1.147,-9.867 v 0 c 0,-7.878 3.536,-14.786 11.896,-17.469 v 0 c 2.432,-0.78 8.89,-0.275 11.646,0.802 v 0 c 1.552,0.61 6.743,3.553 14.603,9.126 v 0 c 5.062,3.589 9.675,6.687 22.515,17.74 v 0 c 7.993,6.877 13.809,13.187 19.583,18.868 v 0 c 10.327,10.16 16.384,17.722 17.863,21.256 v 0 c 0.263,0.629 -0.004,2.035 -0.867,2.651 v 0 c -0.863,0.617 -1.673,0.966 -2.436,1.039 v 0 c -0.041,0.004 -0.081,0.006 -0.12,0.006 v 0 c -0.983,0 -1.473,-1.234 -2.712,-3.332 M 119.235,61.903 c -3.977,-4.398 -5.967,-9.887 -5.967,-16.464 v 0 c 0,-6.042 1.415,-10.861 4.245,-14.457 v 0 c 3.137,-3.899 7.648,-5.85 13.539,-5.85 v 0 c 4.054,0 7.84,1.012 11.359,3.039 v 0 c 3.517,2.027 6.194,4.837 8.029,8.434 v 0 c 1.225,-2.143 3.023,-3.958 5.394,-5.45 v 0 c 2.371,-1.492 4.819,-2.238 7.343,-2.238 v 0 c 1.834,0 2.752,1.225 2.752,3.672 v 0 c 0,1.453 -1.144,2.524 -3.431,3.212 v 0 c -2.978,0.918 -4.883,1.912 -5.723,2.984 v 0 c -0.611,0.765 -1.452,3.365 -2.52,7.801 v 0 c -0.838,3.443 -2.252,5.163 -4.236,5.163 v 0 c -1.752,0 -2.744,-0.879 -2.972,-2.639 v 0 c -0.919,-6.041 -2.479,-10.325 -4.691,-12.85 v 0 c -2.904,-3.212 -6.833,-4.819 -11.79,-4.819 v 0 c -3.741,0 -6.524,1.493 -8.356,4.476 v 0 c -1.602,2.523 -2.401,5.736 -2.401,9.636 v 0 c 0,4.897 1.446,8.854 4.346,11.875 v 0 c 2.893,3.022 6.743,4.532 11.546,4.532 v 0 c 2.897,0 6.043,-0.881 9.434,-2.64 v 0 c 3.391,-1.759 5.316,-2.638 5.775,-2.638 v 0 c 0.686,0 1.392,0.498 2.115,1.492 v 0 c 0.724,0.993 1.086,1.836 1.086,2.524 v 0 c 0,0.687 -0.648,1.491 -1.948,2.41 v 0 c -5.355,3.594 -11.13,5.392 -17.327,5.392 v 0 c -6.423,0 -11.626,-2.199 -15.601,-6.597"
         id="path42" /></clipPath></defs><sodipodi:namedview
     id="namedview4"
     pagecolor="#ffffff"
     bordercolor="#666666"
     borderopacity="1.0"
     inkscape:pageshadow="2"
     inkscape:pageopacity="0.0"
     inkscape:pagecheckerboard="0" /><g
     id="g8"
     inkscape:groupmode="layer"
     inkscape:label="tamm signature logo signatur logga tiger stripes"
     transform="matrix(1.3333333,0,0,-1.3333333,0,189.33333)"><g
       id="g10"><g
         id="g12"
         clip-path="url(#clipPath16)"><g
           id="g18"
           transform="translate(145.0054,114.2412)"><path
             d="m 0,0 c -0.213,-0.08 -0.711,-0.174 -1.485,-0.284 -3.559,-0.527 -7.272,-1.507 -11.145,-2.947 -4.228,-1.574 -28.623,-4.556 -40.754,-10.385 -0.72,-27.824 1.472,-45.233 8.821,-63.908 1.147,-2.923 1.764,-4.698 1.846,-5.328 0.546,-2.42 0.026,-3.938 -1.539,-4.55 -1.632,-0.647 -2.807,-0.697 -3.512,-0.154 -0.226,0.16 -1.347,2.799 -3.365,7.923 -7.668,19.501 -9.097,35.263 -8.798,64.098 -30.886,-10.403 -51.273,-30.388 -55.382,-32.757 -1.656,-0.952 -3.02,-0.504 -4.087,1.352 -0.954,1.66 -0.664,3.063 0.879,4.214 2.007,1.423 4.965,3.569 8.871,6.438 5.734,4.449 22.517,18.813 53.513,28.758 C -25.141,2.413 -19.32,1.255 -13.73,3.337 -4.837,6.645 0.125,6.903 1.167,4.105 1.966,1.958 1.578,0.586 0,0"
             style="fill:#f48031;fill-opacity:1;fill-rule:nonzero;stroke:none"
             id="path20" /></g><g
           id="g22"
           transform="translate(163.1768,28.917)"><path
             d="m 0,0 c -2.524,0 -4.972,0.746 -7.343,2.238 -2.371,1.491 -4.169,3.307 -5.393,5.449 -1.835,-3.595 -4.513,-6.407 -8.031,-8.433 -3.518,-2.026 -7.304,-3.039 -11.358,-3.039 -5.89,0 -10.402,1.951 -13.539,5.85 -2.831,3.596 -4.245,8.414 -4.245,14.457 0,6.578 1.99,12.066 5.967,16.464 3.976,4.398 9.178,6.597 15.602,6.597 6.196,0 11.971,-1.798 17.326,-5.392 1.3,-0.919 1.949,-1.722 1.949,-2.41 0,-0.688 -0.363,-1.531 -1.086,-2.524 -0.723,-0.994 -1.43,-1.492 -2.116,-1.492 -0.459,0 -2.384,0.88 -5.775,2.638 -3.391,1.759 -6.536,2.641 -9.434,2.641 -4.803,0 -8.653,-1.511 -11.546,-4.533 -2.899,-3.021 -4.346,-6.979 -4.346,-11.874 0,-3.901 0.8,-7.115 2.401,-9.637 1.833,-2.983 4.616,-4.476 8.356,-4.476 4.957,0 8.886,1.607 11.79,4.819 2.212,2.524 3.773,6.808 4.692,12.85 0.228,1.76 1.219,2.639 2.972,2.639 1.983,0 3.397,-1.72 4.236,-5.163 1.067,-4.437 1.908,-7.036 2.519,-7.802 0.84,-1.071 2.746,-2.065 5.723,-2.983 C 1.608,6.196 2.753,5.125 2.753,3.672 2.753,1.225 1.835,0 0,0"
             style="fill:#f48031;fill-opacity:1;fill-rule:nonzero;stroke:none"
             id="path24" /></g><g
           id="g26"
           transform="translate(235.5654,64.8799)"><path
             d="m 0,0 c -2.906,-0.256 -6.304,-5.253 -11.81,-14.508 -3.212,-5.659 -6.462,-11.357 -9.752,-17.094 -0.613,-0.996 -1.341,-1.492 -2.182,-1.492 -2.599,0 -3.9,0.996 -3.9,2.993 0,1.227 0.421,3.857 1.262,7.883 0.841,4.032 1.262,7.197 1.262,9.499 0,9.134 -2.945,13.7 -8.835,13.7 -3.9,0 -7.686,-1.874 -11.358,-5.623 -2.907,-2.983 -5.24,-6.616 -6.999,-10.899 -1.606,-3.824 -2.408,-8.069 -2.408,-12.734 0,-1.224 0.17,-2.907 0.515,-5.049 0.346,-2.141 0.517,-3.633 0.517,-4.473 0,-1.99 -1.262,-2.984 -3.787,-2.984 -1.453,0 -2.408,0.914 -2.867,2.747 -0.153,1.446 -0.346,2.935 -0.574,4.462 -0.841,5.185 -2.104,12.966 -3.785,23.341 -0.69,4.803 -1.032,7.78 -1.032,8.924 0,1.448 1.146,2.174 3.44,2.174 1.53,0 2.524,-0.957 2.983,-2.87 0.154,-0.687 0.65,-3.938 1.493,-9.75 2.294,5.124 5.505,9.483 9.635,13.079 4.744,4.131 9.676,6.195 14.802,6.195 5.2,0 9.101,-2.295 11.701,-6.885 1.988,-3.746 2.984,-8.45 2.984,-14.112 8.11,13.617 12.883,20.422 19.044,20.422 1.914,0 3.518,-1.108 4.82,-3.326 C 6.238,1.785 0.534,0.046 0,0"
             style="fill:#f48031;fill-opacity:1;fill-rule:nonzero;stroke:none"
             id="path28" /></g><g
           id="g30"
           transform="translate(270.0791,47.6748)"><path
             d="m 0,0 c 1.268,6.361 -0.198,12.615 -0.504,13.704 -0.303,1.089 -1.001,2.194 -1.535,2.194 -1.987,0 -5.734,-4.626 -11.245,-13.88 -3.212,-5.662 -7.588,-15.211 -10.878,-20.948 -0.612,-0.994 -1.341,-1.492 -2.182,-1.492 -2.599,0 -3.897,0.996 -3.897,2.99 0,1.231 0.418,3.857 1.259,7.886 0.84,4.031 2.393,11.051 2.393,13.351 0,9.134 -2.622,14.012 -8.792,13.4 -3.88,-0.386 -3.906,6.946 1.216,6.946 5.204,0 8.416,-2.399 11.017,-6.989 1.987,-3.749 2.388,-6.366 2.388,-12.025 8.106,13.614 15.052,18.336 19.639,18.336 1.915,0 3.518,-1.111 4.82,-3.329 1.07,-1.835 1.605,-3.748 1.605,-5.737 0,-1.912 -0.38,-4.838 -1.148,-8.776 C 3.394,1.692 -0.862,-4.342 0,0"
             style="fill:#f48031;fill-opacity:1;fill-rule:nonzero;stroke:none"
             id="path32" /></g><g
           id="g34"
           transform="translate(388.6006,99.1011)"><path
             d="m 0,0 c 0.763,-0.073 1.573,-0.422 2.436,-1.039 0.862,-0.616 1.129,-2.022 0.867,-2.651 -1.48,-3.534 -7.537,-11.097 -17.864,-21.257 -5.773,-5.68 -11.589,-11.99 -19.583,-18.867 -12.839,-11.056 -17.453,-14.148 -22.515,-17.74 -7.86,-5.572 -13.051,-8.516 -14.603,-9.126 -2.756,-1.077 -9.214,-1.582 -11.645,-0.802 -8.361,2.683 -11.897,9.592 -11.897,17.469 0,2.218 0.384,5.508 1.148,9.867 0.767,4.359 1.146,7.534 1.146,9.521 0,1.073 -0.266,1.607 -0.802,1.607 -1.987,0 -5.734,-4.626 -11.244,-13.881 -3.213,-5.661 -6.464,-11.359 -9.753,-17.096 -0.608,-0.994 -1.337,-1.491 -2.177,-1.491 -2.6,0 -3.903,0.998 -3.903,2.991 0,1.23 0.423,3.858 1.264,7.887 0.841,4.031 1.264,7.195 1.264,9.496 0,9.134 0.84,17.946 3.44,13.358 1.987,-3.749 2.983,-8.454 2.983,-14.113 8.106,13.615 14.458,20.422 19.044,20.422 1.911,0 3.519,-1.107 4.821,-3.326 1.069,-1.837 1.604,-3.749 1.604,-5.736 0,-1.913 -0.384,-4.838 -1.147,-8.779 -0.763,-3.939 -1.147,-6.978 -1.147,-9.121 0,-4.284 1.109,-7.571 3.328,-9.867 0.941,-0.882 2.403,-1.835 4.386,-2.852 0.09,-0.043 3.794,-1.115 7.856,0.303 7.446,2.594 23.101,14.693 33.552,23.66 7.761,6.658 14.384,12.44 19.787,18.255 9.976,10.735 16.379,19.336 16.521,19.582 C -1.544,-1.145 -1.065,0.104 0,0"
             style="fill:#f48031;fill-opacity:1;fill-rule:nonzero;stroke:none"
             id="path36" /></g></g></g><g
       id="g38"><g
         id="g40"
         clip-path="url(#clipPath44)"><g
           id="g46"
           transform="translate(276.249,120.6245)"><path
             d="m 0,0 -34.269,-46.977 -8.972,-77.048 11.422,20.396 2.444,22.03 2.432,29.832 21.735,16.266 z"
             style="fill:#000000;fill-opacity:1;fill-rule:nonzero;stroke:none"
             id="path48" /></g><g
           id="g50"
           transform="translate(199.5557,114.0859)"><path
             d="m 0,0 -18.764,-32.061 -8.776,-40.783 -3.267,-13.634 4.699,-24.48 10.705,37.529 v 28.2 L 0,-32.061 0.975,-47.867 16.318,-32.061 Z"
             style="fill:#000000;fill-opacity:1;fill-rule:nonzero;stroke:none"
             id="path52" /></g><g
           id="g54"
           transform="translate(138.5186,155.6953)"><path
             d="m 0,0 -10.759,-35.071 -34.09,-64.896 -12.415,-8.555 -27.739,-57.916 v 22.028 l 17.132,38.612 L 0,25.292 Z"
             style="fill:#000000;fill-opacity:1;fill-rule:nonzero;stroke:none"
             id="path56" /></g><g
           id="g58"
           transform="translate(168.749,138.563)"><path
             d="m 0,0 -16.513,-57.111 -13.717,-22.846 -8.548,-33.119 25.527,47.271 z"
             style="fill:#000000;fill-opacity:1;fill-rule:nonzero;stroke:none"
             id="path60" /></g><g
           id="g62"
           transform="translate(132.6572,103.3525)"><path
             d="m 0,0 -16.514,-57.111 -13.717,-22.843 -8.547,-33.122 25.526,47.27 z"
             style="fill:#000000;fill-opacity:1;fill-rule:nonzero;stroke:none"
             id="path64" /></g><g
           id="g66"
           transform="translate(43.1748,130.4268)"><path
             d="M 0,0 C 0,-1.222 -7.343,-77.507 -7.343,-77.507 L -3.671,-111.366 0,-72.611 16.317,0 Z"
             style="fill:#000000;fill-opacity:1;fill-rule:nonzero;stroke:none"
             id="path68" /></g><g
           id="g70"
           transform="translate(318.6709,91.2412)"><path
             d="m 0,0 v -32.628 l -11.422,-34.275 5.713,-8.158 c 0,0 14.996,51.504 16.065,52.677 1.065,1.173 10.042,51.767 10.042,51.767 z"
             style="fill:#000000;fill-opacity:1;fill-rule:nonzero;stroke:none"
             id="path72" /></g><g
           id="g74"
           transform="translate(334.9902,60.2686)"><path
             d="M 0,0 8.266,-16.36 V 0 Z"
             style="fill:#000000;fill-opacity:1;fill-rule:nonzero;stroke:none"
             id="path76" /></g><g
           id="g78"
           transform="translate(373.8457,103.6113)"><path
             d="M 0,0 8.266,-16.358 V 0 Z"
             style="fill:#000000;fill-opacity:1;fill-rule:nonzero;stroke:none"
             id="path80" /></g><g
           id="g82"
           transform="translate(283.583,95.3457)"><path
             d="m 0,0 v -48.531 l 12.508,45.81 z"
             style="fill:#000000;fill-opacity:1;fill-rule:nonzero;stroke:none"
             id="path84" /></g><g
           id="g86"
           transform="translate(381.1846,61.5498)"><path
             d="m 0,0 -16.401,8.186 9.77,-13.123 z"
             style="fill:#000000;fill-opacity:1;fill-rule:nonzero;stroke:none"
             id="path88" /></g><g
           id="g90"
           transform="translate(342.6348,40.4375)"><path
             d="m 0,0 -16.401,8.186 9.77,-13.123 z"
             style="fill:#000000;fill-opacity:1;fill-rule:nonzero;stroke:none"
             id="path92" /></g><g
           id="g94"
           transform="translate(385.0605,74.0938)"><path
             d="m 0,0 -16.401,8.186 9.77,-13.123 z"
             style="fill:#000000;fill-opacity:1;fill-rule:nonzero;stroke:none"
             id="path96" /></g></g></g></g></svg>
